<mxfile host="65bd71144e">
    <diagram id="hOpdC6H4hJuc692cdY_H" name="Page-1">
        <mxGraphModel dx="1058" dy="1167" grid="1" gridSize="10" guides="1" tooltips="1" connect="1" arrows="1" fold="1" page="1" pageScale="1" pageWidth="850" pageHeight="1100" math="0" shadow="0">
            <root>
                <mxCell id="0"/>
                <mxCell id="1" parent="0"/>
                <mxCell id="2" value="API Server" style="whiteSpace=wrap;html=1;aspect=fixed;" vertex="1" parent="1">
                    <mxGeometry x="40" y="80" width="120" height="120" as="geometry"/>
                </mxCell>
                <mxCell id="3" value="Metrics Collector" style="whiteSpace=wrap;html=1;aspect=fixed;" vertex="1" parent="1">
                    <mxGeometry x="241" y="80" width="120" height="120" as="geometry"/>
                </mxCell>
                <mxCell id="4" value="Publish Service" style="whiteSpace=wrap;html=1;aspect=fixed;" vertex="1" parent="1">
                    <mxGeometry x="278" y="471" width="120" height="120" as="geometry"/>
                </mxCell>
                <mxCell id="5" value="Data Services" style="rounded=0;whiteSpace=wrap;html=1;direction=south;" vertex="1" parent="1">
                    <mxGeometry x="440" y="100" width="40" height="80" as="geometry"/>
                </mxCell>
                <mxCell id="6" value="Object Store Services" style="rounded=0;whiteSpace=wrap;html=1;direction=south;" vertex="1" parent="1">
                    <mxGeometry x="440" y="300" width="40" height="80" as="geometry"/>
                </mxCell>
                <mxCell id="7" value="Yugabyte DB" style="shape=cylinder3;whiteSpace=wrap;html=1;boundedLbl=1;backgroundOutline=1;size=15;" vertex="1" parent="1">
                    <mxGeometry x="560" y="80" width="90" height="120" as="geometry"/>
                </mxCell>
                <mxCell id="8" value="Minio" style="shape=cylinder3;whiteSpace=wrap;html=1;boundedLbl=1;backgroundOutline=1;size=15;" vertex="1" parent="1">
                    <mxGeometry x="560" y="280" width="90" height="120" as="geometry"/>
                </mxCell>
                <mxCell id="9" value="CSA STAR" style="ellipse;shape=cloud;whiteSpace=wrap;html=1;" vertex="1" parent="1">
                    <mxGeometry x="711" y="471" width="140" height="120" as="geometry"/>
                </mxCell>
                <mxCell id="10" value="" style="endArrow=classic;html=1;exitX=1;exitY=0.5;exitDx=0;exitDy=0;entryX=0;entryY=0.5;entryDx=0;entryDy=0;" edge="1" parent="1" source="2" target="3">
                    <mxGeometry width="50" height="50" relative="1" as="geometry">
                        <mxPoint x="270" y="380" as="sourcePoint"/>
                        <mxPoint x="320" y="330" as="targetPoint"/>
                    </mxGeometry>
                </mxCell>
                <mxCell id="11" value="" style="endArrow=none;html=1;entryX=0.5;entryY=1;entryDx=0;entryDy=0;" edge="1" parent="1" target="3">
                    <mxGeometry width="50" height="50" relative="1" as="geometry">
                        <mxPoint x="301" y="340" as="sourcePoint"/>
                        <mxPoint x="330" y="270" as="targetPoint"/>
                    </mxGeometry>
                </mxCell>
                <mxCell id="13" value="" style="rhombus;aspect=fixed;" vertex="1" parent="1">
                    <mxGeometry x="540" y="130" width="20" height="20" as="geometry"/>
                </mxCell>
                <mxCell id="14" value="" style="endArrow=none;html=1;rounded=0;align=center;verticalAlign=bottom;labelBackgroundColor=none;exitX=1;exitY=0.5;exitDx=0;exitDy=0;" edge="1" target="13" parent="1" source="3">
                    <mxGeometry relative="1" as="geometry">
                        <mxPoint x="241" y="675" as="sourcePoint"/>
                    </mxGeometry>
                </mxCell>
                <mxCell id="16" value="" style="rhombus;aspect=fixed;" vertex="1" parent="1">
                    <mxGeometry x="540" y="330" width="20" height="20" as="geometry"/>
                </mxCell>
                <mxCell id="17" value="" style="endArrow=none;html=1;rounded=0;align=center;verticalAlign=bottom;labelBackgroundColor=none;" edge="1" target="16" parent="1">
                    <mxGeometry relative="1" as="geometry">
                        <mxPoint x="300" y="340" as="sourcePoint"/>
                    </mxGeometry>
                </mxCell>
                <mxCell id="22" value="" style="endArrow=classic;html=1;exitX=0.817;exitY=1.008;exitDx=0;exitDy=0;exitPerimeter=0;entryX=0.5;entryY=0;entryDx=0;entryDy=0;" edge="1" parent="1" source="3" target="4">
                    <mxGeometry width="50" height="50" relative="1" as="geometry">
                        <mxPoint x="130" y="470" as="sourcePoint"/>
                        <mxPoint x="180" y="420" as="targetPoint"/>
                    </mxGeometry>
                </mxCell>
                <mxCell id="23" value="" style="endArrow=classic;html=1;exitX=1;exitY=0.5;exitDx=0;exitDy=0;" edge="1" parent="1" source="4" target="9">
                    <mxGeometry width="50" height="50" relative="1" as="geometry">
                        <mxPoint x="570" y="751" as="sourcePoint"/>
                        <mxPoint x="620" y="701" as="targetPoint"/>
                    </mxGeometry>
                </mxCell>
                <mxCell id="25" value="Extends" style="endArrow=block;endSize=16;endFill=0;html=1;entryX=0.25;entryY=1;entryDx=0;entryDy=0;" edge="1" parent="1" target="3">
                    <mxGeometry width="160" relative="1" as="geometry">
                        <mxPoint x="271" y="360" as="sourcePoint"/>
                        <mxPoint x="350" y="690" as="targetPoint"/>
                    </mxGeometry>
                </mxCell>
                <mxCell id="26" value="controls.json&lt;br&gt;metrics.json&lt;br&gt;________________&lt;br&gt;metrics_model.json" style="text;html=1;align=center;verticalAlign=middle;resizable=0;points=[];autosize=1;strokeColor=none;fillColor=none;" vertex="1" parent="1">
                    <mxGeometry x="210" y="371" width="120" height="60" as="geometry"/>
                </mxCell>
            </root>
        </mxGraphModel>
    </diagram>
</mxfile>